<svg xmlns="http://www.w3.org/2000/svg" viewBox="0 0 24 24" width="24" height="24">
  <path d="M17.05 20.28c-.98.95-2.05 1.88-3.08 1.88-1.04 0-1.37-.63-2.55-.63-1.19 0-1.57.61-2.56.65-1.03.04-2.26-1.02-3.24-1.98-2-1.96-3.53-5.54-3.53-8.87 0-5.28 3.44-8.08 6.82-8.08 1.07 0 2.08.38 2.74.77.67.38 1.7.9 2.53.53.35-.15.93-.45 1.54-.77.84-.44 1.85-.77 2.94-.7 1.25.08 2.39.53 3.12 1.34-2.58 1.53-2.17 5.12.43 6.18-1.02 2.54-2.65 5.08-4.21 6.68zM12.03 5.25c-.24-2.23 1.6-4.27 3.82-4.25.26 2.29-1.82 4.41-3.82 4.25z" fill="currentColor"/>
</svg>
