<svg xmlns="http://www.w3.org/2000/svg" viewBox="0 0 24 24" width="24" height="24" fill="currentColor">
  <path d="M24 10.304c0-5.369-5.383-9.738-12-9.738s-12 4.369-12 9.738c0 4.814 4.269 8.846 10.036 9.564.39.084.922.258 1.057.592.12.313.079.803.039 1.121l-.171 1.028c-.052.302-.25 1.184 1.077.646 1.328-.537 7.162-4.22 9.76-7.228 1.777-2.023 2.201-3.66 2.201-5.137zm-15.632 3.197h-2.148c-.283 0-.513-.23-.513-.513V7.935c0-.283.23-.513.513-.513h.363c.283 0 .513.23.513.513v4.204h1.272c.283 0 .513.23.513.513v.353c0 .283-.23.513-.513.513zm2.597-.513c0 .283-.23.513-.513.513h-.363c-.283 0-.513-.23-.513-.513V7.935c0-.283.23-.513.513-.513h.363c.283 0 .513.23.513.513v5.053zm6.394 0c0 .283-.23.513-.513.513h-.353c-.22 0-.413-.14-.482-.35l-2.016-2.923v2.76c0 .283-.23.513-.513.513h-.363c-.283 0-.513-.23-.513-.513V7.935c0-.283.23-.513.513-.513h.363c.23 0 .428.15.492.37l2.006 2.9v-2.757c0-.283.23-.513.513-.513h.363c.283 0 .513.23.513.513v5.053zm4.582-1.956c0 .283-.23.513-.513.513h-1.635v1.077h1.635c.283 0 .513.23.513.513v.353c0 .283-.23.513-.513.513h-2.511c-.283 0-.513-.23-.513-.513V7.935c0-.283.23-.513.513-.513h2.511c.283 0 .513.23.513.513v.353c0 .283-.23.513-.513.513h-1.635v1.01h1.635c.283 0 .513.23.513.513v.342z"/>
</svg>
